<?xml version="1.0" encoding="UTF-8" standalone="no"?><!DOCTYPE svg PUBLIC "-//W3C//DTD SVG 1.1//EN" "http://www.w3.org/Graphics/SVG/1.1/DTD/svg11.dtd"><svg width="100%" height="100%" viewBox="0 0 1564 1530" version="1.1" xmlns="http://www.w3.org/2000/svg" xmlns:xlink="http://www.w3.org/1999/xlink" xml:space="preserve" xmlns:serif="http://www.serif.com/" style="fill-rule:evenodd;clip-rule:evenodd;stroke-linejoin:round;stroke-miterlimit:2;"><rect x="0" y="0" width="1564" height="1530" style="fill:#db4a2b;"/><g><path d="M369.75,877.701l0,65.201l-246.949,0l-0,-355.804l80.693,-0l0,290.603l166.256,0Z" style="fill:#fff;fill-rule:nonzero;"/><path d="M673.723,877.701l-0,65.201l-238.834,0l0,-355.804l235.587,-0l0,65.201l-154.894,-0l0,74.625l147.706,-0l0,65.201l-147.706,-0l0,85.576l158.141,0Z" style="fill:#fff;fill-rule:nonzero;"/><path d="M1046.8,587.098l-0,65.201l-117.33,-0l-0,290.603l-80.694,0l0,-290.603l-117.33,-0l0,-65.201l315.354,-0Z" style="fill:#fff;fill-rule:nonzero;"/><path d="M1255.93,582.513c55.187,0 99.862,18.296 134.025,54.886c34.164,36.591 51.245,79.167 51.245,127.728c0,49.241 -17.313,91.944 -51.94,128.11c-34.627,36.167 -79.07,54.25 -133.33,54.25c-54.877,-0 -99.552,-17.998 -134.025,-53.995c-34.472,-35.996 -51.708,-78.785 -51.708,-128.365c-0,-48.731 17.12,-91.349 51.36,-127.855c34.241,-36.506 79.032,-54.759 134.373,-54.759Zm0,291.113c30.608,0 55.264,-9.975 73.969,-29.926c18.705,-19.951 28.057,-46.142 28.057,-78.573c0,-32.6 -9.352,-58.834 -28.057,-78.7c-18.705,-19.865 -43.361,-29.798 -73.969,-29.798c-30.762,-0 -55.534,9.933 -74.316,29.798c-18.782,19.866 -28.173,46.1 -28.173,78.7c-0,32.431 9.391,58.622 28.173,78.573c18.782,19.951 43.554,29.926 74.316,29.926Z" style="fill:#fff;fill-rule:nonzero;"/></g></svg>
